<svg id="Layer_1" data-name="Layer 1" xmlns="http://www.w3.org/2000/svg" xmlns:xlink="http://www.w3.org/1999/xlink" viewBox="0 0 830.53 194.11"><defs><style>.cls-1{fill:none;}.cls-2{clip-path:url(#clip-path);}.cls-3{fill:#0adeff;}.cls-4{fill:#f74385;}.cls-5{fill:#ffa328;}.cls-6{font-size:70px;font-family:Calibri, Calibri;letter-spacing:0.02em;}.cls-7{letter-spacing:0.01em;}.cls-8{letter-spacing:0.01em;}.cls-9{letter-spacing:0.01em;}.cls-10{letter-spacing:0.02em;}</style><clipPath id="clip-path"><path class="cls-1" d="M641,15c-1.13-1-1.69-3-1.69-5.88s.56-4.92,1.72-6,3.27-1.59,6.36-1.59,5.11.53,6.23,1.56,1.69,3,1.69,5.86-.58,4.92-1.73,6-3.27,1.59-6.34,1.59S642.11,16.07,641,15ZM388.78,70.59a2.19,2.19,0,0,1-2-1.23,9.71,9.71,0,0,1-.67-4.31,9.4,9.4,0,0,1,.67-4.25,2.22,2.22,0,0,1,2-1.2h31.64a2.5,2.5,0,0,1,1.08.25,2,2,0,0,1,.84.92,6.8,6.8,0,0,1,.53,1.72,15.06,15.06,0,0,1,.19,2.56,9.64,9.64,0,0,1-.69,4.34,2.12,2.12,0,0,1-2,1.2Zm-374.89,22H27.4a46.85,46.85,0,0,0,15.94-2.36A26.31,26.31,0,0,0,54.18,83a31.67,31.67,0,0,0,6.53-12.28,62.51,62.51,0,0,0,2.17-17.47,54.58,54.58,0,0,0-2-15,32.47,32.47,0,0,0-6.22-12,28.89,28.89,0,0,0-10.73-7.87q-6.49-2.82-16.7-2.83H13.88Zm-8.11,11a5.33,5.33,0,0,1-3.33-1.19c-1-.78-1.56-2.17-1.56-4.17V9.95c0-2,.52-3.37,1.56-4.17A5.42,5.42,0,0,1,5.77,4.59H28.15Q41,4.59,49.83,7.92a39.58,39.58,0,0,1,14.86,9.56,40.91,40.91,0,0,1,9.09,15.11,60.73,60.73,0,0,1,3.09,20A69.56,69.56,0,0,1,73.6,75.1,40.63,40.63,0,0,1,64,91a39.67,39.67,0,0,1-15.47,9.44q-9.16,3.14-21.84,3.14Zm255.32-.22a5.08,5.08,0,0,1-3.91-2.2l-36.49-49v49a1.93,1.93,0,0,1-.31,1,1.88,1.88,0,0,1-1,.75,10.35,10.35,0,0,1-2,.45,25.93,25.93,0,0,1-6.25,0,10.25,10.25,0,0,1-2-.45,1.79,1.79,0,0,1-1.36-1.78V7a1.88,1.88,0,0,1,.3-1.06,2.17,2.17,0,0,1,1.06-.72,11.73,11.73,0,0,1,2-.45,26.19,26.19,0,0,1,6.25,0,11.91,11.91,0,0,1,2,.45,2.12,2.12,0,0,1,1,.72A1.87,1.87,0,0,1,220.7,7V50.6L255.81,7a4.87,4.87,0,0,1,1.06-1.12,4.74,4.74,0,0,1,1.5-.73,12.87,12.87,0,0,1,2.16-.41,30.26,30.26,0,0,1,3.25-.16,22.25,22.25,0,0,1,3.22.19,8.62,8.62,0,0,1,2,.5A2.11,2.11,0,0,1,270,6a2,2,0,0,1,.27,1,4.39,4.39,0,0,1-.5,2,19.65,19.65,0,0,1-1.87,2.73L235,50.6l35.42,46.55a19.08,19.08,0,0,1,1.56,2.69,3.44,3.44,0,0,1,.28,1.17,2.2,2.2,0,0,1-.28,1.11,2,2,0,0,1-1,.8,9.49,9.49,0,0,1-2.08.48,24.26,24.26,0,0,1-3.36.19A33.52,33.52,0,0,1,261.1,103.37Zm189,.22a5.4,5.4,0,0,1-3.31-1.17c-1-.78-1.55-2.17-1.55-4.16V7a1.86,1.86,0,0,1,.3-1.06,2.09,2.09,0,0,1,1.06-.74,11.65,11.65,0,0,1,2-.45,26.19,26.19,0,0,1,6.25,0,10.39,10.39,0,0,1,2,.47A2.11,2.11,0,0,1,458,6,2,2,0,0,1,458.27,7V92.59h35.33a2.16,2.16,0,0,1,1.19.34,2.82,2.82,0,0,1,.84,1,5.05,5.05,0,0,1,.48,1.66,18.75,18.75,0,0,1,.16,2.52,17.7,17.7,0,0,1-.16,2.47,6,6,0,0,1-.48,1.7,2.59,2.59,0,0,1-.84,1,2.07,2.07,0,0,1-1.17.33Zm280.08-.14a7,7,0,0,1-2-.45,2.38,2.38,0,0,1-1-.72,1.62,1.62,0,0,1-.31-1V61.39A40.06,40.06,0,0,0,726,52a19.92,19.92,0,0,0-2.59-6.13A11.3,11.3,0,0,0,719,41.95a13.79,13.79,0,0,0-6.25-1.36,15.61,15.61,0,0,0-9.2,3.33,50.39,50.39,0,0,0-9.64,9.75v47.58a1.71,1.71,0,0,1-.31,1,2.55,2.55,0,0,1-1,.72,7,7,0,0,1-2,.45,30,30,0,0,1-3.23.14,29,29,0,0,1-3.16-.14,7.6,7.6,0,0,1-2-.45,2.2,2.2,0,0,1-1-.73,1.83,1.83,0,0,1-.27-1V32.95a2.1,2.1,0,0,1,.23-1,2,2,0,0,1,.94-.75,5.81,5.81,0,0,1,1.81-.45,33.4,33.4,0,0,1,5.8,0,5.1,5.1,0,0,1,1.77.45,2.38,2.38,0,0,1,.91.75,1.8,1.8,0,0,1,.28,1v9a41.85,41.85,0,0,1,11.44-9.39,24.65,24.65,0,0,1,11.52-3A25.61,25.61,0,0,1,727,31.9a20.78,20.78,0,0,1,7.52,6.19,24.7,24.7,0,0,1,4.11,9.06,54.34,54.34,0,0,1,1.25,12.47v41.62a1.67,1.67,0,0,1-.31,1,2.57,2.57,0,0,1-1,.73,7,7,0,0,1-2,.45,28.9,28.9,0,0,1-3.14.14A30.12,30.12,0,0,1,730.2,103.45ZM125.89,17.79a27.14,27.14,0,0,0-9.48,8.55,35.27,35.27,0,0,0-5.22,12.47,68.33,68.33,0,0,0-1.58,15,82.44,82.44,0,0,0,1.45,16A35.42,35.42,0,0,0,116,82.42a23.37,23.37,0,0,0,9.25,8.23c3.87,2,8.72,2.94,14.56,2.94s10.66-1.06,14.59-3.2a26.09,26.09,0,0,0,9.53-8.66,36.46,36.46,0,0,0,5.14-12.61,72,72,0,0,0,1.55-15.19,76.64,76.64,0,0,0-1.5-15.59,35.79,35.79,0,0,0-5-12.5,24,24,0,0,0-9.33-8.27,31.65,31.65,0,0,0-14.44-3C134.6,14.59,129.79,15.67,125.89,17.79Zm-6.17,83.5a33.88,33.88,0,0,1-13.53-9.59,40.8,40.8,0,0,1-8-15.62,79.37,79.37,0,0,1-2.61-21.46,72.8,72.8,0,0,1,2.84-21.08A43.56,43.56,0,0,1,107,17.43,37.91,37.91,0,0,1,121.22,7.2a50.85,50.85,0,0,1,19.92-3.61A51.47,51.47,0,0,1,160.3,6.85a34.71,34.71,0,0,1,13.58,9.51A40.52,40.52,0,0,1,182,31.84a76.48,76.48,0,0,1,2.66,21.11,75.45,75.45,0,0,1-2.84,21.47,44.79,44.79,0,0,1-8.5,16.27A37.34,37.34,0,0,1,159.07,101a50.84,50.84,0,0,1-19.92,3.59A51.82,51.82,0,0,1,119.72,101.29Zm192.15,1a31.59,31.59,0,0,1-11.61-6.94,30.48,30.48,0,0,1-7.47-11.49,44.61,44.61,0,0,1-2.61-15.92V7a1.87,1.87,0,0,1,.3-1.06,2.17,2.17,0,0,1,1.06-.72,12.09,12.09,0,0,1,2-.45,21.9,21.9,0,0,1,3.19-.19,22.52,22.52,0,0,1,3.13.19,11.1,11.1,0,0,1,2,.45,2.09,2.09,0,0,1,1,.74A1.89,1.89,0,0,1,303.19,7V66.4a37.58,37.58,0,0,0,1.7,11.94,22.18,22.18,0,0,0,4.91,8.45,20.53,20.53,0,0,0,7.75,5.09,28.6,28.6,0,0,0,10.17,1.7,29.54,29.54,0,0,0,10.34-1.67,19.57,19.57,0,0,0,7.66-5,22.21,22.21,0,0,0,4.8-8.27,36.13,36.13,0,0,0,1.67-11.55V7a1.86,1.86,0,0,1,.3-1.06,2.08,2.08,0,0,1,1.06-.74,11.78,11.78,0,0,1,2-.45,22.22,22.22,0,0,1,3.16-.19,21.5,21.5,0,0,1,3.08.19,11,11,0,0,1,2,.45,2.52,2.52,0,0,1,1.06.72A1.8,1.8,0,0,1,365.19,7V66.9a45,45,0,0,1-2.66,16A32.67,32.67,0,0,1,355,94.74a31.86,31.86,0,0,1-12,7.34,48.37,48.37,0,0,1-16.08,2.5A46.08,46.08,0,0,1,311.88,102.25Zm220.75-30.8a19.23,19.23,0,0,0-6.34,2.5,10.42,10.42,0,0,0-3.7,4,11.82,11.82,0,0,0-1.17,5.36,10.5,10.5,0,0,0,3.39,8.23q3.4,3.07,9.52,3.06a18.12,18.12,0,0,0,9.19-2.44,39.44,39.44,0,0,0,8.91-7.45V70.59H541.64A42.12,42.12,0,0,0,532.63,71.45ZM522.47,103.2a21.39,21.39,0,0,1-7.52-4,18.08,18.08,0,0,1-4.83-6.45,20.84,20.84,0,0,1-1.72-8.7,19.73,19.73,0,0,1,2.37-9.91,19.36,19.36,0,0,1,6.81-7A34.3,34.3,0,0,1,528.46,63a68.86,68.86,0,0,1,14.47-1.39h9.49V56.12a27.68,27.68,0,0,0-.86-7.17,12.41,12.41,0,0,0-2.73-5.19,11.86,11.86,0,0,0-4.91-3.11,22.55,22.55,0,0,0-7.41-1.06A30.49,30.49,0,0,0,528,40.68a46.63,46.63,0,0,0-6.56,2.41c-1.87.88-3.45,1.69-4.72,2.41A6.54,6.54,0,0,1,514,46.59a1.94,1.94,0,0,1-1.08-.29,2.5,2.5,0,0,1-.81-.92,4.41,4.41,0,0,1-.5-1.56,12.54,12.54,0,0,1-.16-2.11,13,13,0,0,1,.27-3A4.35,4.35,0,0,1,513,36.59a15.09,15.09,0,0,1,3.61-2.27A41.25,41.25,0,0,1,522.52,32a60.42,60.42,0,0,1,7.3-1.73,47.16,47.16,0,0,1,8-.69,43.05,43.05,0,0,1,12.81,1.67,21.22,21.22,0,0,1,8.55,4.89,18.92,18.92,0,0,1,4.73,8,37.77,37.77,0,0,1,1.49,11.14v46a1.56,1.56,0,0,1-.64,1.38,4.47,4.47,0,0,1-1.73.69,17.32,17.32,0,0,1-3.25.22,18.68,18.68,0,0,1-3.3-.22,4,4,0,0,1-1.78-.69,1.68,1.68,0,0,1-.55-1.39V94.4a34,34,0,0,1-10.08,7.52,27.13,27.13,0,0,1-11.76,2.67A32.76,32.76,0,0,1,522.47,103.2Zm81.82,0A15,15,0,0,1,598,98.95a17.46,17.46,0,0,1-3.58-7.2,41.52,41.52,0,0,1-1.11-10.28V41.59h-9.52A2,2,0,0,1,582,40.31a9.39,9.39,0,0,1-.67-4.17,14.89,14.89,0,0,1,.19-2.58,7.55,7.55,0,0,1,.48-1.72,2,2,0,0,1,.8-1,2.17,2.17,0,0,1,1.09-.28h9.44V14.06a1.92,1.92,0,0,1,.27-1,2.27,2.27,0,0,1,1-.81,7.38,7.38,0,0,1,2-.5,28.65,28.65,0,0,1,3.16-.16,29.57,29.57,0,0,1,3.23.16,6.84,6.84,0,0,1,2,.5,2.68,2.68,0,0,1,1,.81,1.85,1.85,0,0,1,.31,1V30.59h44a3.84,3.84,0,0,1,3.11,1,4.68,4.68,0,0,1,.84,3v66.59a1.73,1.73,0,0,1-.31,1,2.47,2.47,0,0,1-1.06.72,7.6,7.6,0,0,1-2,.45,24.1,24.1,0,0,1-3,.16,29.68,29.68,0,0,1-3.22-.14,7.57,7.57,0,0,1-2-.45,2.32,2.32,0,0,1-1-.72,1.6,1.6,0,0,1-.31-1V41.59h-35V79.42q0,7,2.08,10.59t7.47,3.58a12.42,12.42,0,0,0,3.09-.34c.91-.23,1.72-.48,2.44-.73s1.31-.5,1.81-.73a3.44,3.44,0,0,1,1.36-.34,1.48,1.48,0,0,1,.72.2,1.34,1.34,0,0,1,.53.72,8.24,8.24,0,0,1,.34,1.47,16.26,16.26,0,0,1,.16,2.34,15.86,15.86,0,0,1-.31,3.55,4.32,4.32,0,0,1-.92,2,5.64,5.64,0,0,1-1.84,1.2,14.39,14.39,0,0,1-2.81.91c-1.06.22-2.17.42-3.34.58a29.74,29.74,0,0,1-12.77-1.17ZM786.47,42.53A18,18,0,0,0,779.74,48a24,24,0,0,0-3.92,8.38,41,41,0,0,0-1.28,10.56,48.43,48.43,0,0,0,1,10.36,23.55,23.55,0,0,0,3.5,8.44,17.23,17.23,0,0,0,6.56,5.73,22.22,22.22,0,0,0,10.28,2.12,22.55,22.55,0,0,0,9.7-1.94,17.64,17.64,0,0,0,6.76-5.44,23.17,23.17,0,0,0,3.89-8.33,42.66,42.66,0,0,0,1.25-10.64,49.25,49.25,0,0,0-1-10.28A24.88,24.88,0,0,0,813,48.48a17.06,17.06,0,0,0-6.53-5.77,22.39,22.39,0,0,0-10.27-2.13A22.71,22.71,0,0,0,786.47,42.53Zm-6,59.56a26.92,26.92,0,0,1-10.53-7.28,30.68,30.68,0,0,1-6.3-11.59,53.47,53.47,0,0,1-2.06-15.48,50.91,50.91,0,0,1,2.19-15.35,33.32,33.32,0,0,1,6.59-12.09,29.65,29.65,0,0,1,11-7.89,39,39,0,0,1,15.41-2.81,40.42,40.42,0,0,1,14.83,2.5,27.13,27.13,0,0,1,10.55,7.28A31.22,31.22,0,0,1,828.42,51a52,52,0,0,1,2.11,15.39,50.48,50.48,0,0,1-2.24,15.36,33.55,33.55,0,0,1-6.62,12.09,29.91,29.91,0,0,1-11,7.92,38.79,38.79,0,0,1-15.36,2.84A40.46,40.46,0,0,1,780.42,102.09Z"/></clipPath></defs><title>Logo</title><path d="M816.08,78.21a24.34,24.34,0,0,1-3.87,8.59,17.85,17.85,0,0,1-6.73,5.6,21.88,21.88,0,0,1-9.67,2A21.53,21.53,0,0,1,785.6,92.2a17.5,17.5,0,0,1-6.54-5.9,25.1,25.1,0,0,1-3.48-8.7,51.81,51.81,0,0,1-1-10.66,43.83,43.83,0,0,1,1.28-10.89,25.26,25.26,0,0,1,3.91-8.62,17.81,17.81,0,0,1,6.69-5.63,21.83,21.83,0,0,1,9.71-2A21.54,21.54,0,0,1,806.33,42a17.1,17.1,0,0,1,6.5,5.94,26,26,0,0,1,3.44,8.74,51.5,51.5,0,0,1,1,10.58A45.45,45.45,0,0,1,816.08,78.21Zm12.24-27.37A31.63,31.63,0,0,0,822,39.12a27.1,27.1,0,0,0-10.54-7.36,39.8,39.8,0,0,0-14.83-2.53,38.75,38.75,0,0,0-15.41,2.84,29.75,29.75,0,0,0-11,8,33.79,33.79,0,0,0-6.59,12.23,52.54,52.54,0,0,0-2.18,15.52,54.45,54.45,0,0,0,2.07,15.64,31.19,31.19,0,0,0,6.29,11.73,27.09,27.09,0,0,0,10.54,7.36A39.8,39.8,0,0,0,795.16,105a38.37,38.37,0,0,0,15.37-2.87,30.06,30.06,0,0,0,11-8,34.25,34.25,0,0,0,6.63-12.23,51.66,51.66,0,0,0,2.22-15.52A53.2,53.2,0,0,0,828.32,50.85ZM740,59.59A54.56,54.56,0,0,0,738.78,47a24.9,24.9,0,0,0-4.18-9.16A20.92,20.92,0,0,0,727,31.57a26,26,0,0,0-11.61-2.34,25,25,0,0,0-11.69,3,42.42,42.42,0,0,0-11.61,9.54V32.68a1.89,1.89,0,0,0-.27-1,2.43,2.43,0,0,0-.88-.77,4.52,4.52,0,0,0-1.73-.46,34.49,34.49,0,0,0-5.63,0,5.17,5.17,0,0,0-1.76.46,2,2,0,0,0-.92.77,2.14,2.14,0,0,0-.23,1v69a1.88,1.88,0,0,0,.27,1,2.09,2.09,0,0,0,1,.73,7.66,7.66,0,0,0,2,.46,25.44,25.44,0,0,0,3.07.15,26.27,26.27,0,0,0,3.14-.15,7.06,7.06,0,0,0,1.92-.46,2.39,2.39,0,0,0,1-.73,1.71,1.71,0,0,0,.31-1V53.45a51.52,51.52,0,0,1,10-9.89,16.35,16.35,0,0,1,9.51-3.37,14.47,14.47,0,0,1,6.48,1.38,11.65,11.65,0,0,1,4.56,4,19.69,19.69,0,0,1,2.68,6.21,39.72,39.72,0,0,1,.92,9.51v40.4a1.7,1.7,0,0,0,.31,1,2.38,2.38,0,0,0,1,.73,7.07,7.07,0,0,0,1.92.46,26.26,26.26,0,0,0,3.14.15,25.47,25.47,0,0,0,3.07-.15,7.09,7.09,0,0,0,1.92-.46,2.4,2.4,0,0,0,1-.73,1.71,1.71,0,0,0,.31-1ZM653.85,3.43q-1.65-1.57-6.09-1.57t-6.21,1.61q-1.69,1.61-1.69,6.06t1.65,5.94Q643.15,17,647.6,17t6.21-1.61q1.69-1.61,1.69-6.06T653.85,3.43ZM605.66,30.68V14.28a1.77,1.77,0,0,0-.31-1,2.5,2.5,0,0,0-1-.8,6.09,6.09,0,0,0-1.92-.5,26.28,26.28,0,0,0-3.14-.15,25.45,25.45,0,0,0-3.07.15,6.56,6.56,0,0,0-2,.5,2.18,2.18,0,0,0-1,.8,1.94,1.94,0,0,0-.27,1V30.68h-9.58a2.31,2.31,0,0,0-1.11.27,1.93,1.93,0,0,0-.8.92,7,7,0,0,0-.5,1.65,13.25,13.25,0,0,0-.19,2.45,8.56,8.56,0,0,0,.69,4,2.07,2.07,0,0,0,1.84,1.23H593V81.51a42.83,42.83,0,0,0,1.11,10.39,17.67,17.67,0,0,0,3.56,7.28,14.85,14.85,0,0,0,6.29,4.29,26.57,26.57,0,0,0,9.2,1.42,27.23,27.23,0,0,0,3.53-.23q1.76-.23,3.33-.58a15,15,0,0,0,2.8-.88,5.57,5.57,0,0,0,1.84-1.19,4.19,4.19,0,0,0,.92-1.92,15.53,15.53,0,0,0,.31-3.49,14.45,14.45,0,0,0-.15-2.3,9,9,0,0,0-.35-1.46,1.28,1.28,0,0,0-.54-.73,1.49,1.49,0,0,0-.73-.19,3.42,3.42,0,0,0-1.38.34q-.77.35-1.84.73t-2.45.73a13,13,0,0,1-3.14.34q-5.44,0-7.55-3.64t-2.11-10.77V41.19h35.65v60.48a1.7,1.7,0,0,0,.31,1,2.37,2.37,0,0,0,1,.73,7.66,7.66,0,0,0,2,.46,26.26,26.26,0,0,0,3.14.15,24.67,24.67,0,0,0,3-.15,7.68,7.68,0,0,0,2-.46,2.39,2.39,0,0,0,1-.73,1.71,1.71,0,0,0,.31-1V34.75a4.7,4.7,0,0,0-.84-3,3.9,3.9,0,0,0-3.14-1Zm-53.12,54.2a39.79,39.79,0,0,1-8.93,7.74,17.75,17.75,0,0,1-9.24,2.53q-6.13,0-9.54-3.18a11.12,11.12,0,0,1-3.41-8.55,12.43,12.43,0,0,1,1.19-5.56,10.79,10.79,0,0,1,3.72-4.14,18.66,18.66,0,0,1,6.36-2.61,40.81,40.81,0,0,1,9-.88h10.81Zm12.57-29.67a39.17,39.17,0,0,0-1.46-11.27A19.16,19.16,0,0,0,559,35.86a20.47,20.47,0,0,0-8.43-4.94,41.45,41.45,0,0,0-12.65-1.69A43,43,0,0,0,530,30a52.94,52.94,0,0,0-7.21,1.84A39.17,39.17,0,0,0,517,34.25a16.72,16.72,0,0,0-3.57,2.34,4.39,4.39,0,0,0-1.3,2.11,13.43,13.43,0,0,0-.27,3,13.34,13.34,0,0,0,.15,2.11,4.73,4.73,0,0,0,.5,1.57,2.61,2.61,0,0,0,.81.92,1.88,1.88,0,0,0,1.07.31,6.45,6.45,0,0,0,2.8-1.11q1.88-1.11,4.68-2.45a45,45,0,0,1,6.52-2.45,29.31,29.31,0,0,1,8.39-1.11,22.67,22.67,0,0,1,7.36,1A11.69,11.69,0,0,1,549,43.6a12.09,12.09,0,0,1,2.72,5.1,26.71,26.71,0,0,1,.84,7.05v5.37H543a67.64,67.64,0,0,0-14.49,1.42,33.56,33.56,0,0,0-10.89,4.25,19.75,19.75,0,0,0-6.82,7.13A20.57,20.57,0,0,0,508.46,84a21.83,21.83,0,0,0,1.72,8.89A18.4,18.4,0,0,0,515,99.53a21.28,21.28,0,0,0,7.51,4.1,32.07,32.07,0,0,0,9.85,1.42,26.73,26.73,0,0,0,11.77-2.68,34.06,34.06,0,0,0,10.08-7.51v6.9a1.72,1.72,0,0,0,.54,1.38,3.77,3.77,0,0,0,1.72.69,17.47,17.47,0,0,0,3.18.23,16.08,16.08,0,0,0,3.14-.23,4.31,4.31,0,0,0,1.69-.69,1.62,1.62,0,0,0,.61-1.38Zm-68.38,40a5.34,5.34,0,0,0-.5-1.73,2.73,2.73,0,0,0-.84-1,2,2,0,0,0-1.19-.35H458.64V6.38a1.89,1.89,0,0,0-.31-1.07,2.06,2.06,0,0,0-1.07-.73,11.76,11.76,0,0,0-2-.46,26.22,26.22,0,0,0-6.33,0,11.71,11.71,0,0,0-2.07.46,2,2,0,0,0-1.07.73,1.88,1.88,0,0,0-.31,1.07V98.22q0,3,1.57,4.18a5.43,5.43,0,0,0,3.33,1.19h43.85a2,2,0,0,0,1.19-.34,2.63,2.63,0,0,0,.84-1.07,6.27,6.27,0,0,0,.5-1.76,17.89,17.89,0,0,0,.15-2.57A18.75,18.75,0,0,0,496.74,95.23ZM423.64,62.42a5.94,5.94,0,0,0-.54-1.65,1.89,1.89,0,0,0-.84-.88,2.62,2.62,0,0,0-1.11-.23h-32A2.26,2.26,0,0,0,387,60.81a8.5,8.5,0,0,0-.69,4.06A8.75,8.75,0,0,0,387,69a2.24,2.24,0,0,0,2.07,1.19h32a2.19,2.19,0,0,0,2-1.15,8.71,8.71,0,0,0,.69-4.14A13.34,13.34,0,0,0,423.64,62.42Z"/><g class="cls-2"><rect x="-7.01" y="-16.12" width="478.31" height="138.1"/><polyline class="cls-3" points="-7.01 67.5 816.1 67.5 816.1 65.5 -7.01 65.5"/><polyline class="cls-4" points="-7.01 75.08 921.48 75.08 921.48 73.08 -7.01 73.08"/><polyline class="cls-5" points="-7.01 82.66 1044.58 82.66 1044.58 80.66 -7.01 80.66"/></g><text class="cls-6" transform="translate(259.61 193.32)">BU<tspan class="cls-7" x="85.79" y="0">D</tspan><tspan x="129.23" y="0">AP</tspan><tspan class="cls-8" x="208.69" y="0">E</tspan><tspan class="cls-9" x="243.59" y="0">S</tspan><tspan class="cls-10" x="276.67" y="0">T</tspan></text></svg>