<svg id="Layer_1" data-name="Layer 1" xmlns="http://www.w3.org/2000/svg" viewBox="0 0 57.9 28.06"><defs><style>.cls-1{fill:#70c9c4;}</style></defs><title>Artboard 1</title><path class="cls-1" d="M47.65,14.72a42.87,42.87,0,0,0,7.57-3.34l.13.21A28.73,28.73,0,0,0,57.9,0H49.38V0A48.39,48.39,0,0,1,47.65,14.72Z"/><path class="cls-1" d="M10.07,14.77A49.15,49.15,0,0,1,7.94,0H0A29,29,0,0,0,2.51,11.57l0-.06A43.09,43.09,0,0,0,10.07,14.77Z"/><path class="cls-1" d="M46.23,15.19A45.79,45.79,0,0,0,48.17,0s0,0,0,0H29.47V17.87A58,58,0,0,0,46.23,15.19Z"/><path class="cls-1" d="M28.26,17.87V0H9.15a47.46,47.46,0,0,0,2.38,15.24A58.89,58.89,0,0,0,28.26,17.87Z"/><path class="cls-1" d="M10.58,16.21a51.82,51.82,0,0,1-7.22-2.9A28.91,28.91,0,0,0,19.64,27.18a16.59,16.59,0,0,1-2.88-1.92A21.51,21.51,0,0,1,10.58,16.21Z"/><path class="cls-1" d="M12.08,16.67c2.62,6.2,7.46,11.17,16.18,11.4v-9A60.08,60.08,0,0,1,12.08,16.67Z"/><path class="cls-1" d="M42.38,24.11a16.51,16.51,0,0,1-3.92,3,29.16,29.16,0,0,0,16.17-14,51.21,51.21,0,0,1-7.45,3.06A21.49,21.49,0,0,1,42.38,24.11Z"/><path class="cls-1" d="M29.47,28.06c5-.12,9-1.73,12-4.81a19.79,19.79,0,0,0,4.2-6.65,59.13,59.13,0,0,1-16.24,2.47Z"/></svg>